<svg width="337" height="440" viewBox="0 0 337 440" fill="none" xmlns="http://www.w3.org/2000/svg">
<g clip-path="url(#clip0)">
<path d="M156.748 437.66C156.184 437.66 155.642 437.442 155.236 437.051C154.831 436.66 154.594 436.127 154.575 435.564L164.25 300.64H177.701L158.921 435.564C158.903 436.127 158.666 436.66 158.26 437.051C157.855 437.442 157.313 437.66 156.748 437.66Z" fill="white" stroke="#3F4D79" stroke-width="5" stroke-miterlimit="10" stroke-linecap="round"/>
<path d="M240.333 437.66C239.769 437.66 239.227 437.442 238.821 437.051C238.416 436.66 238.178 436.127 238.16 435.564L219.38 300.64H232.832L242.506 435.564C242.488 436.127 242.251 436.66 241.845 437.051C241.44 437.442 240.897 437.66 240.333 437.66Z" fill="white" stroke="#3F4D79" stroke-width="5" stroke-miterlimit="10" stroke-linecap="round"/>
<path d="M279.102 437.66C278.538 437.66 277.996 437.442 277.59 437.051C277.185 436.66 276.948 436.127 276.929 435.564L258.149 300.64H271.601L281.276 435.564C281.257 436.127 281.02 436.66 280.614 437.051C280.209 437.442 279.667 437.66 279.102 437.66Z" fill="white" stroke="#3F4D79" stroke-width="5" stroke-miterlimit="10" stroke-linecap="round"/>
<path d="M284.075 271.71L280.191 287.24H267.422L271.306 271.71H284.075Z" fill="white" stroke="#3F4D79" stroke-width="5" stroke-miterlimit="10" stroke-linecap="round"/>
<path d="M234.233 271.71L230.349 287.24H217.58L221.464 271.71H234.233Z" fill="white" stroke="#3F4D79" stroke-width="5" stroke-miterlimit="10" stroke-linecap="round"/>
<path d="M281.919 286.173H148.45C144.05 286.173 140.483 289.729 140.483 294.114C140.483 298.5 144.05 302.055 148.45 302.055H281.919C286.319 302.055 289.886 298.5 289.886 294.114C289.886 289.729 286.319 286.173 281.919 286.173Z" fill="#FF9300"/>
<path d="M336.829 162.585L312.625 259.385C311.669 263.207 309.458 266.6 306.345 269.025C303.231 271.45 299.393 272.767 295.442 272.767H207.233C202.35 272.767 198.953 265.409 200.636 258.47L224.747 159.068C225.892 154.345 228.862 151.21 232.188 151.21H328.023C331.914 151.21 338.156 157.078 336.829 162.585Z" fill="#FF9300"/>
<path d="M58.4524 414.304C58.4524 416.758 66.0676 424.271 63.5031 436.831C63.5031 436.831 44.7161 436.859 35.5004 436.916C24.5454 436.983 1.24482 436.983 1.24482 436.983C1.24482 436.983 -1.01731 426.973 10.9833 425.587C22.984 424.2 38.1964 411.556 38.1964 411.556L58.4524 414.304Z" fill="#E2631E"/>
<path d="M64.3105 437.979C53.3556 438.047 1.24487 438.047 1.24487 438.047" stroke="#1F2937" stroke-width="7" stroke-miterlimit="10" stroke-linecap="round"/>
<path d="M38.5521 411.556C39.7401 408.255 41.4509 397.472 41.4509 397.472L60.7536 399.16C60.7536 399.16 57.5525 406.369 58.0967 413.95C58.2817 416.506 37.2467 415.177 38.5521 411.556Z" fill="#FFC0B7"/>
<path d="M233.355 277.011C211.893 285.755 111.282 280.234 111.282 280.234C111.282 280.234 109.222 358.812 71.3885 399.49C71.3885 399.49 45.2923 398.617 38.1395 396.777C38.1395 396.777 57.9154 279.178 72.0536 256.077C79.5229 243.847 163.62 225.186 181.753 223.615C187.153 227.202 192.886 230.265 198.871 232.763C215.354 239.695 232.259 242.177 244.971 242.911C246.924 254.272 247.233 271.359 233.355 277.011Z" fill="#293444"/>
<path d="M73.0353 414.304C73.0353 416.757 80.6504 424.271 78.086 436.83C78.086 436.83 59.299 436.858 50.0833 436.915C39.1283 436.982 15.8277 436.983 15.8277 436.983C15.8277 436.983 13.5656 426.973 25.5662 425.586C37.5669 424.2 52.7793 411.556 52.7793 411.556L73.0353 414.304Z" fill="#FE7523"/>
<path d="M78.8934 437.979C67.9385 438.046 15.8278 438.046 15.8278 438.046" stroke="#1F2937" stroke-width="7" stroke-miterlimit="10" stroke-linecap="round"/>
<path d="M53.135 411.556C54.3229 408.255 56.0337 397.472 56.0337 397.472L78.182 399.869C78.182 399.869 74.1628 403.542 72.6796 413.949C72.3168 416.484 51.8296 415.176 53.135 411.556Z" fill="#FFCFC9"/>
<path d="M248.887 286.255C227.426 295.009 126.814 289.478 126.814 289.478C126.814 289.478 128.891 357.912 81.3654 399.993C81.3654 399.993 57.5846 398.288 50.4212 396.447C50.4212 396.447 80.8817 285.337 87.5756 265.321C91.2391 254.364 184.676 233.238 198.861 232.763C222.261 242.606 246.486 243.454 258.416 243.135C260.546 250.333 267.564 278.649 248.887 286.255Z" fill="#1F2937"/>
<path d="M187.532 193.955C163.19 198.795 104.709 196.72 80.1915 191.809C78.8617 192.834 77.4643 193.769 76.0087 194.607C72.8076 196.44 66.6437 197.922 65.1818 197.841C63.72 197.759 54.7497 196.387 54.7497 196.387C54.7497 196.387 54.4296 195.376 55.7421 194.043C57.0545 192.71 66.6757 193.77 63.158 190.852C61.593 189.547 53.8001 192.483 50.4104 195.738C47.0208 198.993 45.4309 196.415 45.4309 196.415C45.4309 196.415 48.6747 190.388 49.8378 189.295C51.0009 188.203 58.7298 183.573 63.9654 182.867C67.757 182.356 76.8766 183.058 81.7032 184.218C99.5903 179.984 133.91 174.588 158.345 174.783C161.593 161.309 165.537 144.814 166.586 139.935L183.958 151.281L187.532 193.955Z" fill="#FFC0B7"/>
<path d="M166.586 139.935L165.491 144.775C165.491 144.775 169.99 156.139 184.513 159.89L183.958 151.274L166.586 139.935Z" fill="#FAB6AD"/>
<path d="M272.387 170.219C272.387 170.219 271.089 170.137 268.901 169.914C266.412 188.242 264.221 203.638 264.221 207.017C264.221 216.098 265.999 242.691 265.999 242.691C265.999 242.691 218.032 248.056 181.447 223.406C181.447 223.406 189.926 212.027 185.526 176.172C182.603 152.32 183.958 151.274 183.958 151.274C183.958 151.274 174.995 146.615 162.283 136.577C162.283 136.577 168.881 104.062 179.405 97.6829C189.93 91.304 206.263 88.3291 217.107 84.2586C227.952 80.188 244.438 75.9614 244.438 75.9614C248.838 79.5604 269.727 89.7403 274.909 95.8462C282.293 102.594 292.416 129.354 272.387 170.219Z" fill="#CEEFF7"/>
<path d="M230.214 159.525C230.214 159.525 234.699 152.182 240.109 125.411" stroke="#84D7EC" stroke-width="5" stroke-miterlimit="10"/>
<path d="M183.56 150.596C183.047 144.122 183.737 132.006 184.577 125.272" stroke="#84D7EC" stroke-width="5" stroke-miterlimit="10"/>
<path d="M268.894 169.915C268.894 169.915 249.883 217.811 241.276 218.606C213.241 221.19 166.391 194.576 156.268 194.264L151.829 194.122C149.339 195.579 146.174 196.82 143.496 196.037C138.096 194.462 133.771 190.573 130.193 192.243C126.615 193.913 122.486 197.118 120.216 196.852C115.468 196.281 112.729 193.767 112.729 193.767C112.729 193.767 115.685 190.555 118.669 187.502C116.553 188.328 113.334 190.597 111.687 191.377C109.197 192.551 107.917 190.452 107.917 190.452C107.917 190.452 113.469 185.562 115.386 184.403C117.239 183.286 122.439 182.112 125.064 182.056C128.24 181.63 145.662 179.258 154.639 180.201C164.932 179.822 185.583 180.556 221.962 187.374L232.387 160.717C232.387 160.717 248.219 167.734 268.894 169.915Z" fill="#FFCFC9"/>
<path d="M268.894 169.918C268.894 169.918 267.176 174.247 264.537 180.325C255.891 177.779 241.873 172.371 231.815 162.177L232.387 160.709C232.387 160.709 248.222 167.733 268.894 169.918Z" fill="#FAB6AD"/>
<path d="M225.423 44.0176C225.423 44.0176 226.846 64.2285 244.427 75.9615C244.427 75.9615 235.161 96.1725 213.799 97.5695C192.437 98.9666 208.546 87.0067 208.546 87.0067C208.546 87.0067 202.972 68.6218 202.026 64.2392L225.423 44.0176Z" fill="#FFCFC9"/>
<path d="M225.359 54.5129C224.292 63.7568 216.111 77.0074 205.964 78.3654C204.37 72.9581 202.535 66.5863 202.03 64.239L224.242 45.0315L224.932 46.4002C224.932 46.4002 225.587 52.5627 225.359 54.5129Z" fill="#FAB6AD"/>
<path d="M223.751 45.464C223.751 45.464 224.082 51.8003 223.228 53.5696C219.298 61.7249 206.974 71.0858 197.392 71.0858C189.976 71.0858 181.287 48.5594 180.504 40.2587C179.722 31.9581 180.817 18.8067 200.92 17.243C221.023 15.6794 222.439 36.5002 222.439 36.5002L223.751 45.464Z" fill="#FFCFC9"/>
<path d="M165.11 31.8058C165.11 31.8058 161.372 24.4022 167.621 18.9666C174.995 12.5451 181.753 15.5201 185.53 11.4495C189.307 7.37893 197.2 -1.31534 208.934 0.170348C219.455 1.50356 222.524 8.78661 222.524 8.78661C222.524 8.78661 229.033 6.0528 234.685 13.3961C240.337 20.7394 226.686 51.336 226.686 51.336C226.686 51.336 223.011 39.1456 222.439 36.5217C221.155 30.6464 209.56 32.0328 210.502 20.548C210.502 20.548 207.362 28.3771 195.425 28.2281C191.868 28.1856 187.273 27.214 182.709 26.5403C180.184 30.9974 180.116 36.2203 180.504 40.2767C180.504 40.259 169.83 40.0959 165.11 31.8058Z" fill="#1F2937"/>
<path d="M222.201 8.7868C222.201 8.7868 227.472 3.79079 233.067 8.56697" stroke="#1F2937" stroke-width="3" stroke-miterlimit="10"/>
<path d="M210.502 19.8848C210.502 19.8848 208.315 30.4264 196.396 31.1143" stroke="#1F2937" stroke-width="3" stroke-miterlimit="10"/>
<path d="M225.597 33.1676L221.806 4.62754C221.68 3.67756 221.195 2.81131 220.45 2.20617C219.705 1.60103 218.756 1.30279 217.797 1.37251" stroke="#1F2937" stroke-width="5" stroke-miterlimit="10" stroke-linecap="round"/>
<path d="M228.752 53.8679C229.769 58.8604 238.626 72.5152 223.228 98.5732C207.831 124.631 227.852 132.393 217.726 150.242C207.6 168.092 185.647 167.113 186.782 196.983C187.529 216.637 169.852 219.297 170.872 196.983" stroke="#1F2937" stroke-width="5" stroke-miterlimit="10" stroke-linecap="round"/>
<path d="M196.488 170.223C201.774 165.922 207.12 141.566 198.64 127.709C190.161 113.852 181.874 95.1729 194.372 71.6431" stroke="#1F2937" stroke-width="5" stroke-miterlimit="10" stroke-linecap="round"/>
<path d="M228.991 32.6694L221.514 33.7954C219.239 34.1379 217.674 36.2536 218.017 38.5211L219.91 51.013C220.254 53.2804 222.376 54.8408 224.651 54.4983L232.128 53.3724C234.402 53.0299 235.967 50.9141 235.624 48.6467L233.731 36.1548C233.387 33.8873 231.265 32.3269 228.991 32.6694Z" fill="white" stroke="#ECBE02" stroke-width="6" stroke-miterlimit="10"/>
<path d="M7.43365 204.113H198.825C200.86 204.113 202.51 206.468 202.51 209.375V209.857C202.51 212.761 200.86 215.116 198.825 215.116H54.7391" fill="white"/>
<path d="M9.56775 203.404H198.825C200.86 203.404 202.51 205.758 202.51 208.666V209.148C202.51 212.052 200.86 214.407 198.825 214.407H55.4505" stroke="#3CBFD4" stroke-width="5" stroke-miterlimit="10" stroke-linecap="round"/>
<path d="M189.83 440L153.569 214.761H166.053L201.959 439.646L189.83 440Z" fill="white"/>
<path d="M168.162 226.2L154.696 221.19L153.565 214.761H166.056L168.162 226.2Z" fill="#CEEFF7"/>
<path d="M189.119 438.582L153.569 214.761H166.053L201.247 438.227" stroke="#3CBFD4" stroke-width="7" stroke-miterlimit="10" stroke-linecap="round"/>
<path d="M144.086 194.132H36.3754C34.9481 194.133 33.555 193.696 32.3846 192.882C31.2141 192.068 30.3227 190.915 29.8309 189.579L5.00797 122.142C4.69757 121.305 4.59472 120.407 4.7082 119.522C4.82168 118.638 5.14812 117.794 5.65966 117.062C6.17121 116.331 6.85268 115.733 7.64593 115.321C8.43917 114.909 9.32064 114.694 10.2151 114.696H119.349C120.959 114.697 122.53 115.192 123.849 116.114C125.168 117.035 126.171 118.339 126.722 119.848L150.631 184.792C151.016 185.842 151.142 186.97 150.997 188.079C150.853 189.187 150.442 190.245 149.799 191.162C149.157 192.079 148.302 192.827 147.308 193.344C146.313 193.861 145.208 194.132 144.086 194.132Z" fill="#1F2937" stroke="#1F2937" stroke-width="5" stroke-miterlimit="10"/>
<path d="M139.398 194.132H35.3081C33.9112 194.118 32.5531 193.672 31.4206 192.857C30.2881 192.042 29.4369 190.896 28.9841 189.579L4.99699 122.142C3.71299 118.536 6.30234 114.696 10.0299 114.696H115.493C117.065 114.713 118.594 115.216 119.868 116.136C121.142 117.055 122.099 118.346 122.606 119.83L145.725 184.778C147.333 189.345 144.079 194.132 139.398 194.132Z" fill="#293444" stroke="#1F2937" stroke-width="5" stroke-miterlimit="10"/>
<path d="M190.054 194.132H35.0879C33.1098 194.132 31.5062 195.73 31.5062 197.702V197.887C31.5062 199.859 33.1098 201.457 35.0879 201.457H190.054C192.032 201.457 193.636 199.859 193.636 197.887V197.702C193.636 195.73 192.032 194.132 190.054 194.132Z" fill="#1F2937" stroke="#1F2937" stroke-width="5" stroke-miterlimit="10"/>
</g>
<defs>
<clipPath id="clip0">
<rect width="337" height="440" fill="white"/>
</clipPath>
</defs>
</svg>
