<svg width="50" height="50" viewBox="0 0 50 50" fill="none" xmlns="http://www.w3.org/2000/svg">
<path d="M0 40V0H3.31812V37.192H25V40H0Z" fill="white"/>
<path d="M29.4163 50C26.3968 50 21.2416 48.835 21.2416 48.835C21.2416 48.835 16.7675 46.8377 15 45.2843L16.3256 42.4549C18.2405 43.9713 22.1805 45.8391 22.1805 45.8391C22.1805 45.8391 26.6178 46.8932 29.4163 46.8932C32.9145 46.8932 35.529 46.209 37.2597 44.8405C39.0272 43.472 39.911 41.6782 39.911 39.4591C39.911 37.6098 39.2666 36.1674 37.9778 35.1318C36.7258 34.0962 34.6452 33.2825 31.7362 32.6907L26.1575 31.5257C22.6961 30.8229 20.1 29.6394 18.3693 27.975C16.6755 26.3107 15.8285 24.0915 15.8285 21.3176C15.8285 19.0615 16.3993 17.0828 17.5408 15.3814C18.7192 13.6801 20.3394 12.3671 22.4015 11.4424C24.4636 10.4808 26.8387 10 29.5268 10C34.903 10 39.1929 11.6274 42.3966 14.8821L41.0709 17.656C39.377 16.0657 37.6095 14.9191 35.7684 14.2164C33.9272 13.4767 31.8467 13.1068 29.5268 13.1068C26.4336 13.1068 23.9481 13.8465 22.0701 15.3259C20.2289 16.8054 19.3083 18.7841 19.3083 21.2621C19.3083 23.2224 19.8975 24.7758 21.0758 25.9223C22.2542 27.0319 24.1506 27.8456 26.7651 28.3634L32.399 29.5284C36.1182 30.3051 38.8799 31.4702 40.6843 33.0236C42.4886 34.54 43.3908 36.6297 43.3908 39.2926C43.3908 41.4008 42.82 43.2686 41.6785 44.896C40.5738 46.4864 38.972 47.7439 36.8731 48.6685C34.7741 49.5562 32.2886 50 29.4163 50Z" fill="white"/>
<path d="M45.305 49.5562V44.785H50V49.5562H45.305Z" fill="white"/>
</svg>
